<svg width="59" height="56" viewBox="0 0 59 56" fill="none" xmlns="http://www.w3.org/2000/svg">
<path d="M32.3384 1.1439C31.5859 0.411461 30.5654 0 29.5013 0C28.4373 0 27.4168 0.411461 26.6642 1.1439L1.12646 26.0077C0.395482 26.7445 -0.00899126 27.7315 0.000151696 28.7558C0.00929466 29.7802 0.431322 30.7601 1.17534 31.4845C1.91935 32.2089 2.92583 32.6198 3.97798 32.6287C5.03014 32.6376 6.0438 32.2438 6.80063 31.5321L29.5 9.43183L52.1994 31.5321C52.9562 32.2438 53.9699 32.6376 55.022 32.6287C56.0742 32.6198 57.0806 32.2089 57.8247 31.4845C58.5687 30.7601 58.9907 29.7802 58.9998 28.7558C59.009 27.7315 58.6045 26.7445 57.8735 26.0077L32.3384 1.1439ZM33.5129 56V3.90741H25.4871V56H33.5129Z" fill="#2D333C"/>
</svg>
